<?xml version="1.0" standalone="no"?>
<!DOCTYPE svg PUBLIC "-//W3C//DTD SVG 20010904//EN"
 "http://www.w3.org/TR/2001/REC-SVG-20010904/DTD/svg10.dtd">
<svg version="1.0" xmlns="http://www.w3.org/2000/svg"
 width="512.000000pt" height="512.000000pt" viewBox="0 0 512.000000 512.000000"
 preserveAspectRatio="xMidYMid meet">
<metadata>
Created by potrace 1.16, written by Peter Selinger 2001-2019
</metadata>
<g transform="translate(0.000000,512.000000) scale(0.100000,-0.100000)"
fill="#000000" stroke="none">
<path d="M525 4804 c-33 -8 -98 -33 -145 -56 -69 -34 -102 -59 -175 -133 -74
-73 -99 -106 -133 -175 -78 -159 -73 -19 -70 -1912 l3 -1693 27 -73 c75 -206
233 -363 437 -436 l86 -31 1777 -3 c1770 -2 1778 -2 1798 18 26 26 26 80 1
111 l-19 24 -1769 5 -1768 5 -56 23 c-174 70 -293 201 -344 377 -27 93 -23
242 9 338 59 175 177 294 352 353 63 21 102 26 223 31 81 3 160 11 177 18 17
7 44 30 60 51 l29 37 3 849 2 848 310 0 c297 0 311 1 330 20 26 26 26 80 1
111 l-19 24 -311 3 -311 3 0 143 c0 136 -1 143 -23 164 -29 27 -77 28 -108 3
l-24 -19 -3 -1043 c-2 -815 -5 -1045 -15 -1051 -6 -4 -68 -8 -137 -8 -76 0
-151 -6 -190 -15 -105 -25 -221 -88 -306 -167 l-75 -71 3 1364 3 1364 28 79
c62 174 181 294 349 350 76 26 262 45 312 32 l25 -6 3 -291 3 -291 24 -19 c33
-27 82 -25 110 5 22 23 22 25 19 338 l-3 315 -28 36 c-47 62 -66 67 -249 66
-105 0 -184 -6 -223 -15z"/>
<path d="M4235 4485 c-16 -9 -217 -224 -445 -480 l-415 -464 -716 0 c-738 -1
-768 -3 -789 -41 -17 -32 -11 -75 13 -98 l23 -22 658 -2 658 -3 -167 -185
c-167 -185 -195 -225 -195 -277 0 -15 -27 -100 -60 -188 -71 -188 -74 -220
-27 -271 57 -62 84 -59 279 35 92 45 175 81 184 81 47 0 99 51 430 420 l349
389 467 1 c452 0 468 -1 478 -19 11 -21 15 -2866 4 -2895 -5 -14 -40 -16 -291
-16 -297 0 -331 -4 -347 -45 -13 -34 -6 -72 18 -94 23 -22 25 -22 348 -19
l325 3 37 29 c71 54 66 -62 66 1591 0 1641 4 1524 -60 1578 -17 15 -47 31 -68
37 -22 6 -190 10 -429 10 -216 0 -393 3 -393 6 0 3 106 123 236 267 130 144
240 273 245 286 15 38 13 104 -4 137 -18 36 -245 240 -282 254 -38 14 -95 12
-130 -5z m236 -295 l31 -26 -40 -44 -39 -45 -44 37 c-24 20 -69 59 -99 86
l-55 50 40 44 40 44 68 -60 c38 -34 82 -72 98 -86z m-332 -84 c10 -12 -81
-119 -520 -608 -292 -326 -538 -600 -545 -608 -12 -12 -16 -12 -30 2 -15 15
-15 18 2 40 50 63 1067 1188 1074 1188 4 0 13 -6 19 -14z m160 -140 c10 -12
-87 -125 -525 -613 -295 -329 -541 -602 -545 -608 -6 -6 -15 -3 -26 8 -15 15
-15 18 -1 34 105 124 1071 1193 1077 1193 5 0 14 -6 20 -14z"/>
<path d="M1311 2894 c-12 -15 -21 -38 -21 -53 1 -55 45 -81 140 -81 95 0 139
26 140 81 0 15 -9 38 -21 53 -20 25 -24 26 -119 26 -95 0 -99 -1 -119 -26z"/>
<path d="M1770 2898 c-26 -28 -26 -82 -1 -107 25 -25 75 -35 153 -29 51 4 65
9 85 32 28 34 29 65 2 100 -20 25 -24 26 -119 26 -89 0 -101 -2 -120 -22z"/>
<path d="M2230 2900 c-26 -26 -27 -83 -1 -109 25 -25 75 -35 153 -29 51 4 65
9 85 32 28 34 29 65 2 100 -20 25 -24 26 -120 26 -86 0 -102 -3 -119 -20z"/>
<path d="M3851 2724 c-100 -27 -182 -74 -256 -149 -95 -95 -146 -196 -170
-337 l-6 -38 -185 0 c-183 0 -185 0 -209 -25 l-25 -24 0 -454 c0 -444 0 -455
21 -481 l20 -26 469 0 469 0 20 26 c19 25 21 40 21 193 l0 167 84 16 c281 53
476 285 476 566 0 45 -5 105 -11 134 -41 199 -216 379 -419 433 -70 19 -229
18 -299 -1z m321 -178 c163 -78 256 -232 246 -410 -11 -198 -153 -352 -361
-391 l-37 -7 0 206 c0 276 19 256 -244 256 l-195 0 6 33 c24 127 110 245 223
302 70 36 113 45 210 42 79 -3 105 -8 152 -31z m-718 -576 c31 -89 81 -164
157 -235 61 -56 159 -114 222 -129 l27 -6 0 -125 0 -125 -350 0 -350 0 0 345
0 346 135 -3 136 -3 23 -65z m406 -65 c0 -74 -3 -135 -7 -135 -23 0 -114 64
-155 107 -38 42 -98 137 -98 158 0 3 59 5 130 5 l130 0 0 -135z"/>
<path d="M1341 2699 c-53 -21 -66 -77 -30 -123 l20 -26 329 0 329 0 20 26 c28
35 26 67 -3 101 l-24 28 -309 2 c-184 1 -318 -2 -332 -8z"/>
<path d="M1315 2465 c-16 -15 -25 -36 -25 -55 0 -19 9 -40 25 -55 l24 -25 321
0 321 0 24 25 c16 15 25 36 25 55 0 19 -9 40 -25 55 l-24 25 -321 0 -321 0
-24 -25z"/>
<path d="M1311 2244 c-26 -33 -27 -75 -2 -105 l19 -24 483 -3 c334 -2 492 1
510 8 51 21 63 86 24 125 l-24 25 -495 0 -495 0 -20 -26z"/>
<path d="M1310 2028 c-26 -28 -26 -68 1 -102 l20 -26 559 0 559 0 20 26 c27
34 27 64 0 98 l-20 26 -559 0 -559 0 -21 -22z"/>
<path d="M1341 1700 c-45 -19 -50 -37 -51 -178 0 -128 1 -134 25 -157 23 -24
29 -25 154 -25 71 0 137 3 146 6 34 13 45 59 45 183 0 112 -2 122 -24 148 -24
28 -26 28 -148 30 -67 2 -134 -2 -147 -7z"/>
<path d="M1845 1703 c-51 -13 -55 -27 -55 -178 0 -189 -4 -185 177 -185 117 0
133 2 157 21 26 20 26 22 26 155 0 75 -4 144 -10 154 -5 10 -24 23 -41 29 -31
11 -214 14 -254 4z"/>
<path d="M2334 1700 c-46 -19 -54 -46 -54 -183 0 -122 1 -129 25 -152 23 -24
29 -25 160 -25 131 0 137 1 160 25 24 23 25 29 25 154 0 123 -1 131 -24 158
-24 28 -26 28 -148 30 -67 2 -133 -2 -144 -7z"/>
<path d="M4225 1515 c-16 -15 -25 -36 -25 -55 0 -19 9 -40 25 -55 23 -24 30
-25 137 -25 127 0 152 9 163 59 8 38 -16 86 -47 95 -13 3 -69 6 -126 6 -96 0
-105 -2 -127 -25z"/>
<path d="M4249 1339 c-27 -10 -49 -46 -49 -78 0 -10 9 -30 21 -45 20 -26 22
-26 144 -26 122 0 124 0 144 26 28 35 26 67 -3 101 -23 27 -28 28 -128 30 -56
1 -115 -2 -129 -8z"/>
<path d="M1315 1155 c-24 -23 -25 -29 -25 -158 0 -186 -5 -181 174 -185 l136
-4 30 30 30 30 0 121 c0 67 -5 131 -11 144 -18 39 -50 47 -185 47 -119 0 -126
-1 -149 -25z"/>
<path d="M1816 1159 c-26 -20 -26 -21 -26 -164 l0 -144 27 -21 c26 -20 37 -21
161 -18 177 4 172 -1 172 188 0 138 0 139 -26 159 -24 19 -40 21 -154 21 -114
0 -130 -2 -154 -21z"/>
<path d="M2309 1161 c-23 -18 -24 -27 -27 -146 -5 -196 3 -205 183 -205 180 0
188 9 183 205 -4 168 -1 165 -183 165 -116 0 -136 -2 -156 -19z"/>
</g>
</svg>
