<?xml version="1.0" standalone="no"?>
<!DOCTYPE svg PUBLIC "-//W3C//DTD SVG 20010904//EN"
 "http://www.w3.org/TR/2001/REC-SVG-20010904/DTD/svg10.dtd">
<svg version="1.0" xmlns="http://www.w3.org/2000/svg"
 width="512.000000pt" height="512.000000pt" viewBox="0 0 512.000000 512.000000"
 preserveAspectRatio="xMidYMid meet">
<metadata>
Created by potrace 1.16, written by Peter Selinger 2001-2019
</metadata>
<g transform="translate(0.000000,512.000000) scale(0.100000,-0.100000)"
fill="#000000" stroke="none">
<path d="M2493 4415 c-11 -8 -44 -44 -74 -80 l-52 -65 -810 0 -809 0 -40 -22
c-45 -26 -26 2 -406 -599 -263 -416 -282 -449 -282 -492 0 -38 5 -49 31 -71
30 -26 32 -26 200 -26 l169 0 0 -797 0 -798 -35 -43 c-46 -58 -76 -141 -82
-229 -6 -69 -7 -73 -30 -73 -37 0 -82 -27 -103 -63 -16 -25 -20 -50 -20 -119
l0 -88 -55 0 c-42 0 -60 -5 -75 -20 -28 -28 -27 -90 1 -116 21 -19 77 -19
2539 -19 2462 0 2518 0 2539 19 28 26 29 88 1 116 -19 19 -33 20 -210 20
l-190 0 0 1105 0 1105 169 0 c168 0 170 0 200 26 26 22 31 33 31 71 0 43 -19
76 -282 492 -380 601 -361 573 -406 599 l-40 22 -809 0 -810 0 -52 65 c-68 83
-85 95 -141 95 -25 0 -55 -7 -67 -15z m554 -752 c263 -317 482 -582 486 -590
6 -10 -4 -13 -47 -13 l-55 0 -362 438 c-497 600 -463 562 -509 562 -46 0 -12
38 -509 -562 l-362 -438 -55 0 c-42 0 -53 3 -47 13 20 33 966 1167 973 1167 5
0 224 -260 487 -577z m-848 407 l-32 -39 -364 -3 -365 -3 -19 -24 c-24 -30
-24 -72 0 -102 l19 -24 295 -5 296 -5 -42 -52 -42 -52 -687 0 c-379 -1 -688 1
-688 3 0 3 14 27 31 55 l32 51 264 0 264 0 24 25 c30 29 32 74 6 106 -19 24
-22 24 -235 27 -119 2 -216 5 -216 8 0 2 10 20 23 39 l22 35 723 0 723 0 -32
-40z m2159 5 c12 -19 22 -37 22 -40 0 -3 -321 -5 -713 -5 l-714 0 -32 40 -32
40 723 0 723 0 23 -35z m161 -256 c17 -28 31 -52 31 -55 0 -2 -309 -4 -686 -4
l-685 0 -27 32 c-15 17 -35 42 -45 55 l-18 23 699 0 699 0 32 -51z m-1579
-421 l370 -447 0 -440 0 -440 26 -20 c47 -37 103 -22 124 33 6 17 10 173 10
422 l0 394 124 0 c109 0 126 2 149 20 31 24 43 74 28 113 l-11 27 160 0 159 0
20 26 c36 45 20 105 -32 124 -17 6 -118 10 -236 10 l-207 0 -35 43 c-19 23
-39 48 -43 55 -6 9 124 12 638 12 l644 0 31 -50 c17 -28 31 -52 31 -55 0 -3
-110 -5 -244 -5 -144 0 -255 -4 -273 -10 -52 -19 -68 -79 -32 -124 19 -25 25
-26 110 -26 l89 0 0 -1105 0 -1105 -535 0 -534 0 -3 469 c-3 445 -4 470 -22
490 -26 29 -88 29 -116 -1 -20 -21 -20 -33 -20 -490 l0 -468 -140 0 -140 0 0
613 c0 581 -1 614 -19 643 -38 62 -50 64 -451 64 -401 0 -413 -2 -451 -64 -18
-29 -19 -62 -19 -643 l0 -613 -140 0 -140 0 0 1050 0 1051 373 449 c204 248
375 449 379 447 4 -1 174 -203 378 -449z m-1175 147 l-47 -55 -659 0 c-363 0
-659 2 -659 4 0 3 14 27 31 55 l32 51 674 0 675 0 -47 -55z m2924 4 c17 -28
31 -52 31 -55 0 -2 -296 -4 -659 -4 l-659 0 -47 55 -47 55 675 0 674 0 32 -51z
m-3115 -231 c-4 -7 -24 -32 -43 -55 l-35 -43 -633 0 c-348 0 -633 2 -633 5 0
3 14 27 31 55 l31 50 644 0 c514 0 644 -3 638 -12z m-225 -285 c-15 -39 -3
-89 28 -113 23 -18 40 -20 149 -20 l124 0 0 -656 c0 -521 -3 -655 -12 -650
-167 69 -338 37 -456 -88 -51 -54 -52 -55 -116 -57 -59 -2 -67 0 -102 30 -102
84 -226 113 -361 85 l-23 -4 0 750 0 750 390 0 390 0 -11 -27z m1521 -1603 l0
-580 -310 0 -310 0 0 580 0 580 310 0 310 0 0 -580z m-1313 20 c24 -10 54 -30
68 -44 24 -24 25 -30 25 -156 l0 -130 -355 0 -355 0 0 36 c0 48 32 98 74 118
40 19 75 20 125 5 48 -14 87 1 109 43 29 54 95 118 137 133 56 20 123 18 172
-5z m-807 -41 c24 -5 59 -19 78 -31 33 -20 33 -20 14 -42 -35 -37 -55 -89 -60
-153 l-5 -63 -153 0 -154 0 -6 26 c-25 99 70 237 181 263 54 12 54 12 105 0z
m900 -504 l0 -55 -670 0 -670 0 0 55 0 55 670 0 670 0 0 -55z"/>
<path d="M2414 3299 c-67 -26 -138 -97 -164 -166 -17 -47 -20 -78 -20 -241 0
-160 2 -191 17 -212 34 -50 33 -49 313 -49 280 0 279 -1 313 49 15 21 17 52
17 212 0 223 -11 265 -87 341 -65 65 -128 87 -246 86 -66 0 -106 -6 -143 -20z
m245 -157 c59 -32 71 -68 71 -219 l0 -133 -170 0 -170 0 0 133 c0 109 3 138
18 166 26 49 73 71 152 71 44 0 76 -6 99 -18z"/>
<path d="M3783 2700 c-64 -39 -64 -35 -61 -501 l3 -421 37 -34 38 -34 195 0
195 0 38 34 37 34 3 421 c3 466 3 462 -61 501 -29 18 -51 20 -212 20 -161 0
-183 -2 -212 -20z m327 -485 l0 -345 -115 0 -115 0 0 345 0 345 115 0 115 0 0
-345z"/>
<path d="M913 2700 c-64 -39 -64 -35 -61 -501 l3 -421 37 -34 38 -34 195 0
195 0 38 34 37 34 3 421 c3 466 3 462 -61 501 -29 18 -51 20 -212 20 -161 0
-183 -2 -212 -20z m327 -485 l0 -345 -115 0 -115 0 0 345 0 345 115 0 115 0 0
-345z"/>
<path d="M2301 1574 c-18 -23 -21 -41 -21 -129 0 -126 13 -150 80 -150 67 0
80 24 80 150 0 88 -3 106 -21 129 -16 20 -29 26 -59 26 -30 0 -43 -6 -59 -26z"/>
</g>
</svg>
