<?xml version="1.0" standalone="no"?>
<!DOCTYPE svg PUBLIC "-//W3C//DTD SVG 20010904//EN"
 "http://www.w3.org/TR/2001/REC-SVG-20010904/DTD/svg10.dtd">
<svg version="1.0" xmlns="http://www.w3.org/2000/svg"
 width="512.000000pt" height="512.000000pt" viewBox="0 0 512.000000 512.000000"
 preserveAspectRatio="xMidYMid meet">
<metadata>
Created by potrace 1.16, written by Peter Selinger 2001-2019
</metadata>
<g transform="translate(0.000000,512.000000) scale(0.100000,-0.100000)"
fill="#000000" stroke="none">
<path d="M0 2560 l0 -2560 1860 0 1860 0 0 355 0 355 -245 0 -245 0 0 -110 0
-110 -1370 0 -1370 0 0 130 0 130 388 0 c368 0 389 1 432 21 60 27 98 64 126
124 l24 50 0 645 0 645 -24 50 c-28 60 -66 97 -126 124 -43 20 -64 21 -432 21
l-388 0 0 240 0 240 215 0 214 0 3 55 3 54 253 -211 c139 -116 257 -207 261
-202 77 90 103 126 95 133 -5 4 -145 121 -311 260 l-303 251 0 75 0 75 -215 0
-215 0 0 615 0 615 75 0 75 0 0 -215 0 -215 110 0 110 0 0 -152 c0 -207 24
-281 119 -375 150 -148 390 -158 552 -24 47 39 106 127 125 188 9 30 17 108
21 206 l6 157 103 0 104 0 0 215 0 215 75 0 75 0 0 -615 0 -615 -270 0 -270 0
0 -245 0 -245 520 0 520 0 0 860 0 860 75 0 75 0 0 -1240 0 -1240 895 0 895 0
0 1240 0 1240 75 0 75 0 0 -1370 0 -1370 -700 0 -700 0 0 -347 0 -348 -152
-152 -153 -153 60 -60 60 -60 205 205 205 205 133 0 132 0 0 110 0 110 700 0
700 0 0 1860 0 1860 -2560 0 -2560 0 0 -2560z m4950 700 l0 -1690 -700 0 -700
0 0 -110 0 -110 -75 0 -75 0 0 185 0 185 700 0 700 0 0 1540 0 1540 -1215 0
-1215 0 0 -860 0 -860 -345 0 -345 0 0 75 0 75 265 0 265 0 0 785 0 785 -945
0 -945 0 0 -785 0 -785 215 0 215 0 0 -75 0 -75 -215 0 -215 0 0 -1380 0
-1380 1540 0 1540 0 0 105 0 105 75 0 75 0 0 -180 0 -180 -1690 0 -1690 0 0
2390 0 2390 2390 0 2390 0 0 -1690z m-3230 1240 l0 -130 -455 0 -455 0 0 130
0 130 455 0 455 0 0 -130z m2590 -215 l0 -345 -725 0 -725 0 0 345 0 345 725
0 725 0 0 -345z m-2810 -232 c0 -166 -10 -202 -71 -260 -118 -112 -307 -76
-375 72 -21 45 -24 64 -24 193 l0 142 235 0 235 0 0 -147z m2810 -413 l0 -130
-725 0 -725 0 0 130 0 130 725 0 725 0 0 -130z m0 -810 l0 -510 -725 0 -725 0
0 510 0 510 725 0 725 0 0 -510z m-3560 -1240 l0 -670 -130 0 -130 0 0 670 0
670 130 0 130 0 0 -670z m494 659 c51 -23 55 -103 7 -128 -11 -7 -85 -11 -175
-11 l-156 0 0 75 0 75 150 0 c89 0 159 -5 174 -11z m46 -656 l0 -358 -185 3
-185 3 0 349 0 350 183 3 c100 1 183 3 185 5 1 1 2 -159 2 -355z m-39 -534
c48 -25 44 -105 -7 -128 -15 -6 -85 -11 -174 -11 l-150 0 0 75 0 75 156 0 c90
0 164 -4 175 -11z"/>
<path d="M3165 4580 c-17 -5 -44 -23 -60 -40 l-30 -31 0 -224 0 -224 30 -31
c16 -16 46 -35 67 -41 24 -6 186 -9 436 -7 441 3 430 2 472 71 18 29 20 51 20
232 0 181 -2 203 -20 232 -42 70 -30 68 -480 70 -223 1 -419 -2 -435 -7z m765
-300 l0 -130 -345 0 -345 0 0 130 0 130 345 0 345 0 0 -130z"/>
<path d="M2045 2048 c-27 -5 -92 -29 -144 -54 -313 -152 -440 -534 -284 -853
28 -57 58 -96 118 -156 114 -114 223 -168 375 -185 150 -17 302 19 424 101
123 82 207 194 252 333 21 66 27 101 27 186 1 191 -53 323 -187 455 -93 92
-167 136 -282 165 -83 22 -210 25 -299 8z m244 -173 c160 -38 297 -172 341
-334 18 -67 14 -188 -9 -253 -98 -283 -420 -404 -675 -254 -53 31 -130 110
-163 166 -102 179 -72 403 75 549 119 120 270 164 431 126z"/>
<path d="M4060 835 l0 -85 90 0 90 0 0 85 0 85 -90 0 -90 0 0 -85z"/>
<path d="M4390 835 l0 -85 85 0 85 0 0 85 0 85 -85 0 -85 0 0 -85z"/>
<path d="M4710 835 l0 -85 85 0 85 0 0 85 0 85 -85 0 -85 0 0 -85z"/>
</g>
</svg>
