<?xml version="1.0" standalone="no"?>
<!DOCTYPE svg PUBLIC "-//W3C//DTD SVG 20010904//EN"
 "http://www.w3.org/TR/2001/REC-SVG-20010904/DTD/svg10.dtd">
<svg version="1.0" xmlns="http://www.w3.org/2000/svg"
 width="512.000000pt" height="512.000000pt" viewBox="0 0 512.000000 512.000000"
 preserveAspectRatio="xMidYMid meet">
<metadata>
Created by potrace 1.16, written by Peter Selinger 2001-2019
</metadata>
<g transform="translate(0.000000,512.000000) scale(0.100000,-0.100000)"
fill="#000000" stroke="none">
<path d="M3505 5026 c-36 -16 -1146 -806 -1194 -850 -49 -45 -71 -99 -71 -176
0 -81 23 -134 79 -181 48 -42 98 -59 170 -59 66 0 103 16 204 88 45 32 88 62
95 66 9 6 12 -44 12 -233 l0 -241 -380 0 -379 0 -68 61 c-37 34 -86 70 -108
80 -54 25 -156 25 -210 0 -32 -15 -1064 -922 -1444 -1269 -110 -101 -131 -138
-131 -232 0 -144 96 -240 240 -240 75 0 118 17 187 76 l53 46 0 -941 0 -941
2160 0 2160 0 0 560 0 560 80 0 80 0 0 295 0 295 -160 807 c-89 445 -163 816
-166 826 -5 15 -21 17 -160 17 l-154 0 0 240 c0 132 2 240 5 240 2 0 45 -29
93 -65 111 -81 145 -95 224 -95 142 1 238 97 238 240 0 69 -19 122 -58 164
-37 39 -1164 844 -1207 862 -43 17 -150 18 -190 0z m687 -557 c310 -221 571
-410 581 -421 39 -45 7 -118 -52 -118 -23 0 -155 89 -575 390 l-546 389 -546
-389 c-420 -301 -552 -390 -575 -390 -59 0 -91 73 -51 118 9 11 270 200 580
421 427 304 570 401 592 401 22 0 165 -97 592 -401z m-267 -203 l310 -223 3
-661 2 -662 -160 0 -160 0 0 400 0 400 -320 0 -320 0 0 -400 0 -400 -160 0
-160 0 0 660 0 659 313 225 c171 123 319 225 327 225 8 0 155 -100 325 -223z
m-2053 -908 c692 -610 1385 -1234 1392 -1253 22 -57 -32 -111 -89 -89 -13 5
-335 286 -716 624 -380 338 -695 615 -699 615 -5 0 -319 -277 -699 -615 -380
-338 -702 -619 -716 -624 -57 -22 -111 32 -89 89 7 19 700 643 1392 1253 63
55 89 72 112 72 23 0 49 -17 112 -72z m1888 -318 l0 -320 -160 0 -160 0 0 320
0 320 160 0 160 0 0 -320z m-960 -16 l0 -256 -30 25 c-68 58 -540 480 -540
483 0 2 128 4 285 4 l285 0 0 -256z m1770 253 c0 -1 70 -351 155 -777 85 -426
155 -785 155 -797 l0 -23 -960 0 -960 0 0 140 0 141 60 -50 c64 -53 108 -71
179 -71 64 0 116 19 162 59 56 47 79 100 79 181 0 94 -24 136 -145 245 -55 49
-136 122 -180 162 l-80 72 683 1 682 0 0 360 0 360 85 0 c47 0 85 -1 85 -3z
m-2287 -712 l517 -459 0 -133 0 -133 -320 0 -320 0 0 320 0 320 -400 0 -400 0
0 -320 0 -320 -320 0 -321 0 3 135 3 135 515 459 c283 253 518 459 521 458 3
-1 238 -209 522 -462z m-283 -485 l0 -240 -240 0 -240 0 0 240 0 240 240 0
240 0 0 -240z m800 -1120 l0 -720 -480 0 -480 0 0 480 0 480 -480 0 -480 0 0
-480 0 -480 -80 0 -80 0 0 720 0 720 1040 0 1040 0 0 -720z m2080 480 l0 -80
-960 0 -960 0 0 80 0 80 960 0 960 0 0 -80z m-160 -720 l0 -480 -880 0 -880 0
0 480 0 480 880 0 880 0 0 -480z m-3040 -80 l0 -400 -320 0 -320 0 0 400 0
400 320 0 320 0 0 -400z"/>
<path d="M3280 3920 l0 -240 320 0 320 0 0 240 0 240 -320 0 -320 0 0 -240z
m480 0 l0 -80 -160 0 -160 0 0 80 0 80 160 0 160 0 0 -80z"/>
<path d="M2000 1200 l0 -320 320 0 320 0 0 320 0 320 -320 0 -320 0 0 -320z
m480 0 l0 -160 -160 0 -160 0 0 160 0 160 160 0 160 0 0 -160z"/>
<path d="M3120 720 l0 -320 320 0 320 0 0 320 0 320 -320 0 -320 0 0 -320z
m480 0 l0 -160 -160 0 -160 0 0 160 0 160 160 0 160 0 0 -160z"/>
<path d="M3920 720 l0 -320 320 0 320 0 0 320 0 320 -320 0 -320 0 0 -320z
m480 0 l0 -160 -160 0 -160 0 0 160 0 160 160 0 160 0 0 -160z"/>
</g>
</svg>
