<?xml version="1.0" standalone="no"?>
<!DOCTYPE svg PUBLIC "-//W3C//DTD SVG 20010904//EN"
 "http://www.w3.org/TR/2001/REC-SVG-20010904/DTD/svg10.dtd">
<svg version="1.0" xmlns="http://www.w3.org/2000/svg"
 width="512.000000pt" height="512.000000pt" viewBox="0 0 512.000000 512.000000"
 preserveAspectRatio="xMidYMid meet">
<metadata>
Created by potrace 1.16, written by Peter Selinger 2001-2019
</metadata>
<g transform="translate(0.000000,512.000000) scale(0.100000,-0.100000)"
fill="#000000" stroke="none">
<path d="M727 4598 c-20 -7 -35 -27 -59 -79 -31 -65 -36 -70 -90 -93 -65 -28
-92 -62 -91 -113 1 -44 24 -69 93 -102 49 -23 58 -32 85 -89 32 -66 61 -91
105 -91 44 0 73 25 105 91 27 57 36 66 85 89 69 33 92 58 93 102 1 51 -26 85
-91 113 -54 23 -59 29 -90 93 -25 56 -38 71 -63 80 -37 13 -45 13 -82 -1z"/>
<path d="M1233 4359 c-76 -38 -73 -5 -73 -741 0 -623 1 -654 19 -682 10 -15
32 -37 47 -47 28 -18 69 -19 1187 -19 1279 0 1196 -4 1237 63 19 31 20 55 20
692 0 625 -1 661 -19 688 -44 67 55 62 -1221 65 -1151 2 -1155 2 -1197 -19z
m2277 -734 l0 -595 -1095 0 -1095 0 0 595 0 595 1095 0 1095 0 0 -595z"/>
<path d="M1391 4134 c-21 -26 -21 -36 -21 -505 0 -329 3 -486 11 -502 6 -14
22 -30 36 -36 17 -8 306 -11 999 -11 1036 0 1020 -1 1038 45 3 9 6 236 6 504
l0 488 -23 21 -23 22 -1001 0 -1002 0 -20 -26z m1909 -456 l0 -321 -103 159
c-117 181 -163 234 -200 234 -50 0 -76 -23 -148 -131 -39 -60 -75 -107 -79
-104 -4 2 -64 93 -135 202 -70 109 -141 210 -157 226 -30 29 -82 36 -117 17
-10 -5 -80 -104 -156 -220 -75 -115 -140 -210 -144 -210 -4 0 -38 47 -75 104
-81 124 -120 148 -185 112 -13 -7 -79 -98 -147 -202 l-124 -189 0 323 0 322
885 0 885 0 0 -322z m-556 -425 c6 -10 -46 -13 -248 -13 l-254 0 -42 66 -41
65 126 194 127 194 162 -247 c89 -136 165 -253 170 -259z m-792 137 l97 -150
-199 0 -200 0 98 150 c53 82 99 150 102 150 3 0 49 -68 102 -150z m1118 23
c41 -64 83 -129 93 -145 l19 -28 -119 0 -118 0 -35 55 c-19 30 -35 57 -35 60
0 9 109 175 115 175 3 -1 39 -53 80 -117z"/>
<path d="M4425 4136 c-40 -17 -51 -32 -80 -106 -32 -82 -44 -94 -127 -126 -52
-20 -75 -34 -89 -58 -44 -72 -10 -138 89 -175 77 -27 105 -57 133 -138 26 -72
59 -103 111 -103 62 0 96 35 127 132 17 51 54 84 123 109 99 37 133 103 89
175 -14 24 -37 38 -89 58 -38 15 -77 35 -86 44 -8 10 -28 49 -43 87 -39 95
-93 130 -158 101z m109 -321 l36 -28 -31 -22 c-17 -13 -41 -37 -53 -53 l-22
-30 -20 29 c-12 17 -35 40 -52 53 l-31 22 44 37 c24 20 47 46 50 58 7 20 8 19
25 -9 10 -16 35 -42 54 -57z"/>
<path d="M64 3831 c-67 -41 -64 -14 -64 -567 0 -493 0 -502 21 -528 39 -50 65
-56 229 -56 l150 0 0 -885 0 -885 -113 0 c-181 0 -217 -33 -217 -198 0 -104
13 -144 58 -177 26 -19 43 -20 547 -20 486 0 522 1 547 18 46 32 60 64 66 153
l5 84 839 0 839 0 24 25 c33 32 33 78 0 110 l-24 25 -841 0 -840 0 0 175 0
175 1130 0 1130 0 0 -175 0 -175 -120 0 c-115 0 -122 -1 -145 -25 -33 -32 -33
-78 0 -110 23 -24 30 -25 145 -25 l120 0 0 -80 c0 -90 13 -126 57 -156 26 -17
53 -19 336 -22 296 -3 310 -2 352 18 57 28 75 66 75 164 l0 76 205 0 205 0 0
-87 c0 -77 3 -90 25 -119 56 -74 234 -74 290 0 l25 33 0 462 0 463 -34 34
c-19 19 -41 34 -50 34 -14 0 -16 18 -16 138 0 156 -11 192 -71 224 -31 16 -64
18 -377 18 -372 0 -378 -1 -421 -56 -17 -22 -21 -41 -21 -107 l0 -80 -22 28
c-37 48 -90 65 -205 65 l-102 0 -3 288 -3 289 -27 40 c-16 24 -44 49 -70 62
l-44 21 -1239 0 c-1237 0 -1239 0 -1282 -21 -30 -15 -52 -35 -71 -67 l-27 -47
-3 -281 -3 -282 -119 -3 c-115 -4 -119 -5 -157 -35 -74 -59 -73 -52 -73 -486
l0 -388 -60 0 -60 0 0 885 0 885 151 0 c242 0 253 10 257 249 4 183 1 202 -30
231 -28 26 -68 26 -102 -1 l-26 -20 0 -150 0 -149 -330 0 -330 0 0 425 0 425
330 0 330 0 0 -129 c0 -128 0 -130 26 -150 30 -23 71 -27 95 -8 33 25 39 55
39 199 0 163 -11 198 -71 230 -31 17 -65 18 -419 18 -361 0 -387 -1 -416 -19z
m2276 -1570 c0 -96 1 -100 26 -120 30 -24 52 -26 88 -10 34 16 46 56 46 150
l0 79 558 0 c421 0 561 -3 570 -12 9 -9 12 -84 12 -278 l0 -266 -31 -30 c-50
-46 -59 -80 -59 -214 l0 -120 -55 0 -55 0 0 228 c0 335 15 322 -352 322 -369
0 -358 11 -358 -327 l0 -223 -115 0 -115 0 0 214 c0 123 -4 226 -10 243 -19
52 -79 68 -124 32 l-26 -20 0 -235 0 -234 -100 0 -100 0 0 228 c0 250 -3 261
-66 303 -27 17 -51 19 -284 19 -372 0 -360 11 -360 -327 l0 -223 -69 0 -68 0
-5 123 c-5 133 -14 161 -67 211 l-31 30 0 266 c0 194 3 269 12 278 9 9 150 12
575 12 l563 0 0 -99z m-360 -626 l0 -195 -195 0 -195 0 0 195 0 195 195 0 195
0 0 -195z m1300 0 l0 -195 -195 0 -195 0 0 195 0 195 195 0 195 0 0 -195z
m1580 160 c0 -13 -38 -15 -285 -15 -247 0 -285 2 -285 15 0 13 38 15 285 15
247 0 285 -2 285 -15z m-3742 -147 c9 -9 12 -133 12 -495 l0 -483 -145 0 -145
0 0 488 c0 269 3 492 7 495 12 13 258 8 271 -5z m2870 -485 l2 -493 -140 0
-140 0 0 488 c0 269 3 492 7 496 4 3 66 5 137 4 l131 -3 3 -492z m982 127 l0
-150 -395 0 -395 0 0 150 0 150 395 0 395 0 0 -150z m0 -335 l0 -25 -395 0
-395 0 0 25 0 25 395 0 395 0 0 -25z m-4290 -245 l0 -40 -225 0 -225 0 0 40 0
40 225 0 225 0 0 -40z"/>
<path d="M4450 1333 c-52 -19 -69 -94 -30 -133 18 -18 33 -20 148 -20 140 0
164 8 176 56 10 39 -11 81 -46 93 -32 11 -221 14 -248 4z"/>
<path d="M4033 2996 c-15 -13 -39 -52 -53 -87 -25 -63 -26 -65 -99 -100 -85
-41 -111 -68 -111 -113 0 -50 32 -91 87 -112 78 -29 94 -44 128 -119 38 -82
51 -95 102 -101 59 -8 95 21 123 95 26 71 58 102 130 126 59 19 82 49 84 103
1 55 -25 88 -86 109 -64 22 -110 66 -127 123 -28 93 -114 131 -178 76z"/>
</g>
</svg>
