<?xml version="1.0" standalone="no"?>
<!DOCTYPE svg PUBLIC "-//W3C//DTD SVG 20010904//EN"
 "http://www.w3.org/TR/2001/REC-SVG-20010904/DTD/svg10.dtd">
<svg version="1.0" xmlns="http://www.w3.org/2000/svg"
 width="512.000000pt" height="512.000000pt" viewBox="0 0 512.000000 512.000000"
 preserveAspectRatio="xMidYMid meet">
<metadata>
Created by potrace 1.16, written by Peter Selinger 2001-2019
</metadata>
<g transform="translate(0.000000,512.000000) scale(0.100000,-0.100000)"
fill="#000000" stroke="none">
<path d="M4140 5111 c-83 -27 -128 -66 -510 -447 l-396 -394 -1289 -2 -1290
-3 -47 -23 c-65 -32 -125 -94 -156 -160 l-27 -57 -3 -425 -3 -425 -210 -211
-209 -211 0 -53 0 -53 210 -211 209 -211 3 -565 3 -565 23 -50 c30 -65 102
-138 166 -167 l51 -23 565 -3 565 -3 425 -424 426 -425 49 0 49 0 328 327
c227 227 331 338 339 361 14 42 0 85 -43 129 l-32 33 462 0 462 0 0 -270 c0
-299 4 -326 59 -354 41 -22 387 -23 476 -2 152 36 274 155 314 306 9 34 11
450 9 1735 l-3 1690 -32 68 c-37 77 -116 163 -183 197 -83 42 -128 50 -294 50
l-159 0 97 100 c122 125 150 181 150 290 0 112 -28 166 -156 294 -129 130
-180 158 -293 162 -44 2 -91 0 -105 -5z m138 -225 c15 -8 65 -53 110 -100 76
-79 82 -89 82 -127 0 -39 -6 -47 -120 -162 l-119 -122 -143 142 -143 143 90
91 c145 147 181 167 243 135z m-790 -1253 l-583 -583 -142 142 -143 143 582
582 583 583 142 -142 143 -143 -582 -582z m-800 90 l-325 -328 -117 -350 c-64
-193 -116 -363 -116 -378 0 -37 27 -82 57 -96 17 -8 274 -11 838 -11 l815 0 0
110 0 110 -452 0 c-449 0 -453 0 -423 19 17 10 307 296 645 635 l615 616 245
0 c140 0 261 -5 283 -11 49 -13 105 -63 128 -114 18 -38 19 -109 19 -1473 l0
-1433 -21 11 c-72 39 -86 40 -939 40 l-825 0 -1170 1169 c-1275 1275 -1199
1205 -1275 1167 l-31 -15 3 292 c3 316 4 323 60 354 18 10 269 12 1168 13
l1144 0 -326 -327z m-1803 -973 l-115 -115 80 -80 80 -80 115 115 115 115 132
-133 133 -132 -115 -115 -115 -115 75 -75 c41 -41 79 -75 85 -75 5 0 59 49
120 110 l110 110 133 -133 132 -132 -110 -110 c-60 -60 -110 -114 -110 -120 0
-6 34 -44 75 -85 l75 -75 115 115 115 115 135 -135 135 -135 -115 -115 -115
-115 80 -80 80 -80 115 115 115 115 132 -133 133 -132 -115 -115 -115 -115 80
-80 80 -80 115 115 115 115 140 -140 140 -140 -225 -225 -225 -225 -1215 1215
-1215 1215 225 225 225 225 142 -142 143 -143 -115 -115z m1797 189 c-9 -8
-255 -90 -259 -86 -2 3 59 195 82 256 4 10 33 -13 95 -74 49 -49 86 -92 82
-96z m-1209 -1867 c-54 -2 -247 -2 -430 0 l-331 3 -26 24 c-14 14 -30 41 -36
60 -6 21 -10 204 -10 441 l0 405 465 -465 465 -465 -97 -3z m3280 -233 c21 -6
56 -26 77 -45 106 -96 88 -258 -37 -331 -44 -26 -57 -28 -180 -31 l-133 -4 0
211 0 211 118 0 c64 0 134 -5 155 -11z"/>
<path d="M4050 2670 l0 -110 110 0 110 0 0 110 0 110 -110 0 -110 0 0 -110z"/>
<path d="M4480 2670 l0 -110 110 0 110 0 0 110 0 110 -110 0 -110 0 0 -110z"/>
</g>
</svg>
